<?xml version="1.0" encoding="utf-8"?>
<!-- Generator: Adobe Illustrator 28.1.0, SVG Export Plug-In . SVG Version: 6.00 Build 0)  -->
<svg version="1.1" id="Capa_1" xmlns="http://www.w3.org/2000/svg" xmlns:xlink="http://www.w3.org/1999/xlink" x="0px" y="0px"
	 viewBox="0 0 4646.8 3679.7" style="enable-background:new 0 0 4646.8 3679.7;" xml:space="preserve">
<style type="text/css">
	.st0{fill:#0E0E0E;}
	.st1{enable-background:new    ;}
</style>
<path class="st0" d="M1885.7,862.2c235,0,426.6,185.3,437.3,417.5c0,0.2,0.5,0.2,0.5,0c10.4-232.5,202.3-417.5,437.3-417.5
	c0-241.6-195.9-437.8-437.8-437.8s-437.5,195.9-437.5,437.8C1885.5,862.2,1885.5,862.2,1885.7,862.2L1885.7,862.2z"/>
<path class="st0" d="M2323.5,1319.3c0-0.2-0.5-0.2-0.5,0c-10.1,232.7-202.1,418.2-437.3,418.2h-0.2c0,0,0,0-0.2,0
	c0.2,241.6,196.1,437.3,437.8,437.3s437.5-195.9,437.8-437.3C2525.6,1737.5,2333.7,1552.1,2323.5,1319.3z"/>
<path class="st0" d="M2760.8,862.2c0,235-185.3,426.9-417.7,437.3c-0.2,0-0.2,0.5,0,0.5c232.5,10.4,417.7,202.1,417.7,437.3
	c0,0,0,0,0,0.2s0,0,0,0.2c241.6,0,437.8-195.9,437.8-437.8S3002.4,862.2,2760.8,862.2z"/>
<path class="st0" d="M1885.5,1737.1c0-235.5,185.7-427.4,418.5-437.3c0.2,0,0.2-0.5,0-0.5c-232.7-9.9-418.5-201.8-418.5-437.3
	c-241.6,0.2-437.3,196.1-437.3,437.8s195.9,437.5,437.3,437.8C1885.5,1737.3,1885.5,1737.3,1885.5,1737.1
	C1885.5,1737.3,1885.5,1737.3,1885.5,1737.1z"/>
<g class="st1">
	<path d="M855.8,3067.2v105.2c0,13-4,23.3-11.9,30.9c-7.9,7.6-18.3,11.3-31.2,11.3s-23.3-3.8-31.2-11.3
		c-7.9-7.6-11.9-17.8-11.9-30.9h24.1c0.1,6.4,1.8,11.5,4.9,15.3c3.1,3.8,7.8,5.7,14,5.7s10.8-1.9,14.1-5.8c3.2-3.8,4.8-8.9,4.8-15.2
		v-105.2H855.8z"/>
	<path d="M928.3,3067.2v93c0,11.1,2.9,19.4,8.7,25s13.9,8.4,24.3,8.4c10.5,0,18.7-2.8,24.5-8.4c5.8-5.6,8.7-13.9,8.7-25v-93h23.9
		v92.6c0,11.9-2.6,22-7.8,30.2c-5.2,8.3-12.1,14.4-20.8,18.5s-18.3,6.1-28.8,6.1s-20.1-2-28.7-6.1c-8.6-4.1-15.4-10.2-20.5-18.5
		c-5-8.3-7.6-18.3-7.6-30.2v-92.6H928.3z"/>
	<path d="M1081,3209.5c-7.8-3.4-14-8.3-18.5-14.6s-6.7-13.7-6.7-22.1h25.6c0.6,6.3,3,11.5,7.5,15.5c4.4,4.1,10.6,6.1,18.6,6.1
		c8.3,0,14.7-2,19.3-6c4.6-4,6.9-9.1,6.9-15.4c0-4.9-1.4-8.9-4.3-12s-6.4-5.5-10.7-7.1c-4.3-1.7-10.2-3.5-17.7-5.5
		c-9.5-2.5-17.3-5.1-23.2-7.7c-6-2.6-11-6.6-15.2-12.1s-6.3-12.7-6.3-21.8c0-8.4,2.1-15.8,6.3-22c4.2-6.3,10.1-11.1,17.6-14.5
		c7.6-3.4,16.3-5,26.2-5c14.1,0,25.7,3.5,34.8,10.6c9,7.1,14,16.8,15,29.1h-26.5c-0.4-5.3-2.9-9.9-7.6-13.6s-10.7-5.7-18.3-5.7
		c-6.9,0-12.5,1.8-16.8,5.2c-4.3,3.5-6.5,8.5-6.5,15.1c0,4.5,1.4,8.2,4.1,11c2.7,2.9,6.2,5.1,10.4,6.8c4.2,1.7,9.9,3.5,17.2,5.5
		c9.7,2.7,17.5,5.3,23.6,8s11.3,6.8,15.5,12.3c4.3,5.5,6.4,12.9,6.4,22.2c0,7.4-2,14.4-6,21s-9.8,11.9-17.4,15.9s-16.6,6-27,6
		C1097.6,3214.6,1088.8,3212.9,1081,3209.5z"/>
	<path d="M1290.3,3067.2v19.5h-38.9v126.4h-23.9v-126.4h-39.1v-19.5H1290.3z"/>
	<path d="M1412.7,3193.8h49.4v19.3h-73.3v-146h23.9V3193.8z"/>
	<path d="M1515.9,3067.2v146H1492v-146H1515.9z"/>
	<path d="M1637.7,3213.1l-56.5-65.3v65.3h-23.9v-146h23.9v66.6l56.7-66.6h30l-63.4,73.1l64.5,72.9H1637.7z"/>
	<path d="M1724,3086.5v42.8h50.4v19.5H1724v44.7h56.7v19.5H1700v-146h80.6v19.5H1724z"/>
	<path d="M1992.5,3067.2l-48.3,93v52.9h-23.9v-52.9l-48.5-93h26.7l33.8,71.6l33.8-71.6H1992.5z"/>
	<path d="M2050.4,3205c-11.4-6.4-20.4-15.3-27.1-26.7s-10-24.3-10-38.5s3.3-27.1,10-38.4c6.6-11.3,15.7-20.2,27.1-26.6
		c11.4-6.4,23.9-9.6,37.5-9.6c13.7,0,26.3,3.2,37.7,9.6c11.4,6.4,20.4,15.2,27,26.6c6.6,11.3,9.9,24.1,9.9,38.4s-3.3,27.1-9.9,38.5
		c-6.6,11.4-15.6,20.3-27,26.7s-24,9.6-37.7,9.6C2074.3,3214.6,2061.8,3211.4,2050.4,3205z M2113.7,3187.2
		c7.6-4.4,13.5-10.7,17.7-18.9c4.3-8.2,6.4-17.7,6.4-28.5s-2.1-20.2-6.4-28.3c-4.3-8.1-10.2-14.3-17.7-18.7
		c-7.6-4.3-16.2-6.5-25.8-6.5s-18.3,2.2-25.8,6.5c-7.6,4.3-13.5,10.6-17.7,18.7c-4.3,8.1-6.4,17.6-6.4,28.3
		c0,10.8,2.1,20.3,6.4,28.5s10.2,14.5,17.7,18.9c7.6,4.4,16.2,6.6,25.8,6.6S2106.2,3191.6,2113.7,3187.2z"/>
	<path d="M2219.6,3067.2v93c0,11.1,2.9,19.4,8.7,25s13.9,8.4,24.3,8.4c10.5,0,18.7-2.8,24.5-8.4c5.8-5.6,8.7-13.9,8.7-25v-93h23.9
		v92.6c0,11.9-2.6,22-7.8,30.2c-5.2,8.3-12.1,14.4-20.8,18.5s-18.3,6.1-28.8,6.1s-20.1-2-28.7-6.1c-8.6-4.1-15.4-10.2-20.5-18.5
		c-5-8.3-7.6-18.3-7.6-30.2v-92.6H2219.6z"/>
	<path d="M2426.4,3213.1l-33.6-58.4h-18.3v58.4h-23.9v-146h50.4c11.2,0,20.7,2,28.5,5.9s13.6,9.2,17.4,15.8
		c3.8,6.6,5.8,13.9,5.8,22.1c0,9.5-2.8,18.2-8.3,25.9c-5.5,7.8-14,13.1-25.5,15.9l36.1,60.5L2426.4,3213.1L2426.4,3213.1z
		 M2374.5,3135.6h26.5c9,0,15.7-2.2,20.3-6.7c4.5-4.5,6.8-10.5,6.8-18.1s-2.2-13.5-6.7-17.7c-4.5-4.3-11.3-6.4-20.4-6.4h-26.5
		L2374.5,3135.6L2374.5,3135.6z"/>
	<path d="M2663.3,3109.2c-3.8-7.3-9-12.8-15.8-16.5c-6.7-3.7-14.5-5.6-23.3-5.6c-9.7,0-18.3,2.2-25.8,6.5
		c-7.6,4.3-13.5,10.5-17.7,18.5c-4.3,8-6.4,17.2-6.4,27.7s2.1,19.8,6.4,27.8c4.3,8.1,10.2,14.2,17.7,18.6c7.6,4.3,16.2,6.5,25.8,6.5
		c13,0,23.6-3.6,31.7-10.9c8.1-7.3,13.1-17.1,14.9-29.6H2616v-19.1h80.4v18.7c-1.5,11.3-5.6,21.8-12.1,31.3s-15,17.1-25.4,22.8
		s-22,8.5-34.8,8.5c-13.7,0-26.2-3.2-37.6-9.6c-11.3-6.4-20.3-15.2-27-26.6c-6.7-11.3-10-24.1-10-38.4s3.3-27.1,10-38.4
		c6.6-11.3,15.7-20.2,27.1-26.6c11.4-6.4,23.9-9.6,37.5-9.6c15.5,0,29.4,3.8,41.5,11.4c12.1,7.6,20.9,18.4,26.4,32.4h-28.7V3109.2z"
		/>
	<path d="M2805.7,3213.1l-33.6-58.4h-18.3v58.4h-23.9v-146h50.4c11.2,0,20.7,2,28.5,5.9s13.6,9.2,17.4,15.8
		c3.8,6.6,5.8,13.9,5.8,22.1c0,9.5-2.8,18.2-8.3,25.9c-5.5,7.8-14,13.1-25.5,15.9l36.1,60.5L2805.7,3213.1L2805.7,3213.1z
		 M2753.8,3135.6h26.5c9,0,15.7-2.2,20.3-6.7c4.5-4.5,6.8-10.5,6.8-18.1s-2.2-13.5-6.7-17.7c-4.5-4.3-11.3-6.4-20.4-6.4h-26.5
		L2753.8,3135.6L2753.8,3135.6z"/>
	<path d="M2960.4,3183.3h-61.1l-10.5,29.8h-25l52.3-146.2h27.7l52.3,146.2h-25.2L2960.4,3183.3z M2953.7,3163.8L2930,3096
		l-23.9,67.8H2953.7z"/>
	<path d="M3148.6,3213.1h-23.9l-72-109v109h-23.9V3067h23.9l72,108.8V3067h23.9V3213.1z"/>
	<path d="M3278.5,3076.1c11.7,6,20.7,14.5,27.1,25.6c6.4,11.1,9.6,24.1,9.6,39c0,14.8-3.2,27.7-9.6,38.6
		c-6.4,10.9-15.4,19.3-27.1,25.1c-11.7,5.8-25.3,8.7-40.8,8.7H3190v-146h47.7C3253.2,3067.2,3266.8,3070.2,3278.5,3076.1z
		 M3276.9,3179.7c9.1-9.2,13.7-22.3,13.7-39.1c0-16.9-4.6-30.2-13.7-39.7c-9.1-9.5-22.2-14.3-39.3-14.3h-23.7v106.9h23.7
		C3254.7,3193.6,3267.8,3189,3276.9,3179.7z"/>
	<path d="M3502.4,3067.2v146h-23.9v-100l-44.5,100h-16.6l-44.7-100v100h-23.9v-146h25.8l51.2,114.5l51-114.5H3502.4z"/>
	<path d="M3631.8,3183.3h-61.1l-10.5,29.8h-25l52.3-146.2h27.7l52.3,146.2h-25.2L3631.8,3183.3z M3625.1,3163.8l-23.7-67.8
		l-23.9,67.8H3625.1z"/>
	<path d="M3703.8,3067.2h26l-22.1,50H3691L3703.8,3067.2z"/>
	<path d="M3782.4,3209.5c-7.8-3.4-14-8.3-18.5-14.6s-6.7-13.7-6.7-22.1h25.6c0.6,6.3,3,11.5,7.5,15.5c4.4,4.1,10.6,6.1,18.6,6.1
		c8.3,0,14.7-2,19.3-6s6.9-9.1,6.9-15.4c0-4.9-1.4-8.9-4.3-12c-2.9-3.1-6.4-5.5-10.7-7.1c-4.3-1.7-10.2-3.5-17.7-5.5
		c-9.5-2.5-17.3-5.1-23.2-7.7c-6-2.6-11-6.6-15.2-12.1s-6.3-12.7-6.3-21.8c0-8.4,2.1-15.8,6.3-22c4.2-6.3,10.1-11.1,17.6-14.5
		c7.6-3.4,16.3-5,26.2-5c14.1,0,25.7,3.5,34.8,10.6c9,7.1,14,16.8,15,29.1h-26.5c-0.4-5.3-2.9-9.9-7.6-13.6
		c-4.6-3.8-10.7-5.7-18.3-5.7c-6.9,0-12.5,1.8-16.8,5.2c-4.3,3.5-6.5,8.5-6.5,15.1c0,4.5,1.4,8.2,4.1,11c2.7,2.9,6.2,5.1,10.4,6.8
		s9.9,3.5,17.2,5.5c9.7,2.7,17.5,5.3,23.6,8s11.3,6.8,15.5,12.3c4.3,5.5,6.4,12.9,6.4,22.2c0,7.4-2,14.4-6,21s-9.8,11.9-17.4,15.9
		c-7.6,4-16.6,6-27,6C3799,3214.6,3790.2,3212.9,3782.4,3209.5z"/>
</g>
<g>
	<path d="M745.8,2805.7c-17.9,12-41.4,19.5-72.3,19.5c-101.7,0-171-74.3-171-181.9c0-38.3,9-72.7,24.9-101.2
		c-38.9-20.9-77.7-37.9-118.1-37.9c-56.4,0-87.7,31.4-87.7,71.8c0,32.9,22.9,50.3,44.4,50.3c10.4,0,19-5.9,21.9-22.9
		c3-15.9,12.5-30.9,34.9-30.9c19.9,0,34.9,16.5,34.9,37.4c0,29.9-26.9,59.8-75.2,59.8c-44.9,0-92.7-32.9-92.7-93.2
		c0-58.3,50.3-100.6,119.6-100.6c47.8,0,91.7,19.9,134.6,43.3c30.4-36.4,76.3-57.8,132.5-57.8c85.2,0,135,41.9,135,90.2
		c0,46.4-34.4,73.2-84.2,73.2c-49.4,0-96.7-24-143-50.3c-5,20.4-7,43.9-7,68.8c0,89.7,28.4,155,97.7,155c34.9,0,61.3-15.9,70.7-27.9
		v-58.3c0-33.4-8-36.9-43.9-39.4v-16.5h153v16.4c-32.4,2.5-40.3,5.9-40.3,39.4v90.2c0,93.7-80.2,136.1-153.5,136.1
		c-86.3,0-141.1-32.9-141.1-72.7c0-19.5,14-32.9,32.9-32.9c21.5,0,33.4,14.5,38.3,35.4c7,30.4,26.9,43.9,69.8,43.9
		c56.4,0,84.7-27.9,84.7-76.8v-29.5L745.8,2805.7L745.8,2805.7z M592.8,2548.1c45.3,26.5,89.2,49.8,134.6,49.8
		c35.8,0,52.3-21.5,52.3-46.4c0-32.9-37.4-63.3-96.2-63.3C637.7,2488.3,608.7,2511.2,592.8,2548.1z"/>
	<path d="M1023,2650.3c-25.9,0-26.5-24.4-42.8-24.4c-10.4,0-23.4,6.5-32.9,19.9v131.6c0,15.9,5.9,20.9,30.9,23.4v17H856.5v-17
		c24.9-2.5,30.4-7.5,30.4-23.4v-123.6c0-11.5-4-15.4-14-15.4h-16.5v-15l69.3-40.3h21.5v31.4c16.5-19,40.8-31.4,63.8-31.4
		c27.4,0,41.4,14.5,41.4,34.9C1052.3,2638.3,1038.9,2650.3,1023,2650.3z"/>
	<path d="M1204.3,2792.3c-21.9,15.9-50.3,31.9-81.3,31.9c-40.8,0-67.3-20.9-67.3-55.3c0-56.4,69.3-75.7,147.5-89.2v-26.5
		c0-33.9-6.5-45.8-30.9-45.8c-24.3,0-37.9,10.4-44.9,34.9c-5.5,18.4-17.4,26.9-31.9,26.9c-14,0-24-9-24-26.9
		c0-32.9,42.4-59.3,105.6-59.3c46.4,0,86.3,17,86.3,72.7v116.2c0,15.4,5,22.9,15,22.9c4.5,0,10-1.5,16.5-5v21.9
		c-12,8-25.4,12-44.9,12C1226.7,2823.7,1209.3,2815.2,1204.3,2792.3z M1203.3,2768.3V2704c-50.8,8.4-84.2,20.9-84.2,53.9
		c0,21.5,14,30.4,31.4,30.4C1169.4,2788.3,1186.8,2779.8,1203.3,2768.3z"/>
	<path d="M1453.5,2817.7v-17c24.9-2.5,30.9-7.5,30.9-23.4v-123.1c0-26.5-15-37.4-35.8-37.4c-19.9,0-37.9,7-54.8,17.9v142.5
		c0,15.9,5.9,20.9,30.9,23.4v17h-121.6v-17c24.9-2.5,30.4-7.5,30.4-23.4v-123.6c0-11.5-4-15.4-14-15.4H1303v-15l69.3-40.3h21.5v24.4
		c19.5-12.5,49.4-24.4,76.3-24.4c32.9,0,74.8,12,74.8,72.3v122.1c0,15.9,5.5,20.9,30.4,23.4v17H1453.5L1453.5,2817.7z"/>
	<path d="M1733.6,2817.7v-17c24.9-2.5,30.9-7.5,30.9-23.4v-123.1c0-26.5-15-37.4-35.8-37.4c-19.9,0-37.9,7-54.8,17.9v142.5
		c0,15.9,5.9,20.9,30.9,23.4v17H1583v-17c24.9-2.5,30.4-7.5,30.4-23.4v-123.6c0-11.5-4-15.4-14-15.4H1583v-15l69.3-40.3h21.5v24.4
		c19.5-12.5,49.4-24.4,76.3-24.4c32.9,0,74.8,12,74.8,72.3v122.1c0,15.9,5.5,20.9,30.4,23.4v17H1733.6L1733.6,2817.7z"/>
	<path d="M1859.2,2623.3l69.3-40.3h21.9v162c0,26.9,14.5,37.9,35.4,37.9c19.9,0,37.9-7,54.8-18.4v-110.7c0-11.5-4-15.4-14-15.4
		h-16.5v-15l68.8-40.3h21.9v228.3c0,62.3-44.4,105.6-118.6,105.6c-70.3,0-102.2-28.4-102.2-53.9c0-15.9,12.5-28.4,26.9-28.4
		c39.9,0,17.9,55.3,76.8,55.3c39.9,0,56.8-19,56.8-59.8v-37.9c-19.5,12.5-49.4,24.4-75.7,24.4c-33.4,0-74.8-12.5-74.8-72.7v-90.2
		c0-11.5-4-15.4-14-15.4h-17L1859.2,2623.3L1859.2,2623.3z"/>
	<path d="M2152.2,2611.4c-7.5-61.3-24.9-88.2-24.9-114.6c0-21.9,15-35.4,33.9-35.4c18.4,0,33.9,13.4,33.9,35.4
		c0,26.5-17.9,53.3-25.4,114.6H2152.2z"/>
	<path d="M2410.3,2747c0,48.9-41.9,78.2-96.2,78.2c-31.4,0-61.8-10.4-78.8-22.9l-5.9,15.4H2214l-17.9-78.8l13.4-4
		c28.4,44.9,64.3,65.7,102.6,65.7c24,0,44.9-10.9,44.9-33.9c0-55.3-153-26.9-153-114.6c0-39.4,37.9-69.3,88.7-69.3
		c32.4,0,53.3,9,68.2,19.9l5.5-12.5h15.4l14.5,68.8l-14.5,4.5c-22.9-39.9-53.9-57.3-84.2-57.3c-24.4,0-37.4,12-37.4,27.4
		C2260.3,2685.2,2410.3,2658.2,2410.3,2747z"/>
	<path d="M2907.7,2647.3c118.1,189.9,186.4,256.7,243.7,256.7c42.8,0,33.9-58.3,77.7-58.3c21.5,0,33.9,17,33.9,32.9
		c0,31.4-35.8,57.8-99.2,57.8c-95.6,0-196.9-66.8-331.4-285h-35.8V2762c0,33.4,8,36.4,43.9,38.9v17H2684v-17
		c35.8-2.5,43.9-5.5,43.9-38.9v-235.3c-0.5-22.9-11.5-29.9-38.3-29.9h-31.9c-71.3,0-112.6,36.9-113.7,91.2
		c0,40.3,25.9,66.3,53.3,66.3c15.4,0,24-6.5,24-17.4c0-11.5-10-18.4-10-33.9c0-21.9,15.9-34.9,34.4-34.9c25.9,0,38.3,21.5,38.3,43.3
		c0,42.4-33.9,72.3-81.3,72.3c-51.8,0-89.7-36.4-89.7-95.6c0-70.7,57.8-119.1,144.5-119.1h198.9c93.2,0,152.5,21.9,152.5,90.2
		C3008.8,2614.9,2968.5,2640.8,2907.7,2647.3z M2856.4,2496.7h-44.9c-9,0-15,5.9-15,15v111.2h58.8c50.3,0,78.8-17.4,78.8-63.8
		C2934.1,2513.2,2905.7,2496.7,2856.4,2496.7z"/>
	<path d="M3092.6,2685.6c-0.5,5.9-1,12-1,18.4c0,58.3,19.5,93.7,69.8,93.7c30.9,0,58.3-20.4,74.3-56.4l22.9,12.5
		c-19.5,42.4-51.4,71.3-103.1,71.3c-81.3,0-127.1-51.8-127.1-121.1c0-69.8,46.4-121.1,118.1-121.1c64.8,0,104.7,37.9,104.7,102.6
		L3092.6,2685.6L3092.6,2685.6z M3094.6,2659.3h97.7c0-32.9-18.4-51.4-44.9-51.4C3114.6,2607.9,3100.1,2626.3,3094.6,2659.3z"/>
	<path d="M3453.9,2670.2c-14.5,0-25.9-9-29.4-27.9c-4-20.9-12.9-34.4-35.8-34.4c-39.9,0-52.8,37.9-52.8,96.2s21.9,93.7,67.8,93.7
		c32.4,0,53.3-20.4,68.8-56.8l22.9,12.9c-19,42.8-48.3,71.3-100.6,71.3c-75.7,0-122.1-51.8-122.1-121.1
		c0-69.8,47.8-121.1,116.6-121.1c55.3,0,93.2,27.4,93.2,58.8C3482.3,2660.2,3468.9,2670.2,3453.9,2670.2z"/>
	<path d="M3499.3,2817.7v-17c24.9-2.5,30.4-7.5,30.4-23.4v-123.6c0-11.5-4-15.4-14-15.4h-16.5v-15l69.3-40.3h21.5v194.4
		c0,15.9,5.9,20.9,30.9,23.4v17L3499.3,2817.7L3499.3,2817.7z M3561.1,2471.3c22.9,0,36.9,17.4,36.9,35.4c0,17.4-14,34.4-36.9,34.4
		s-36.4-17-36.4-34.4C3524.7,2488.8,3538.2,2471.3,3561.1,2471.3z"/>
	<path d="M3716.5,2818.2c0,19-3,36.9-8.4,52.8c36.9,20.4,75.7,45.3,124.1,45.3c24,0,32.9-10.9,35.8-25.4c4-17.9,14-29.9,31.4-29.9
		c15.9,0,26.9,10.9,26.9,27.4c0,29.9-37.4,53.9-88.2,53.9c-56.8,0-101.7-27.4-141.1-48.3c-15,25.4-38.3,42.4-67.8,42.4
		c-32.9,0-55.3-19.5-55.3-45.3c0-27.9,25.9-46.4,55.8-46.4c9,0,17.4,1,26.5,3.5v-194.4c0-11.5-4-15.4-14-15.4h-17.9v-15l70.7-40.3
		h21.5v24.4c15.9-15.4,37.4-24.4,65.7-24.4c63.8,0,104.7,49.8,104.7,121.1c0,70.7-40.8,121.1-111.7,121.1c-24.9,0-44.4-7-58.8-19.5
		L3716.5,2818.2L3716.5,2818.2z M3655.3,2875c-8.4-3-17-4.5-25.4-4.5c-15,0-27.4,7-27.4,20.4c0,10.9,8.4,19.5,22.9,19.5
		C3641.3,2910.4,3652.2,2899.9,3655.3,2875z M3716.5,2635.3v137.5c10.9,15.4,26.5,24,47.8,24c42.8,0,59.3-34.4,59.3-92.7
		s-16.5-92.7-59.3-92.7C3743,2611.4,3727.5,2619.9,3716.5,2635.3z"/>
	<path d="M3966.2,2685.6c-0.5,5.9-1,12-1,18.4c0,58.3,19.5,93.7,69.8,93.7c30.9,0,58.3-20.4,74.3-56.4l22.9,12.5
		c-19.5,42.4-51.4,71.3-103.1,71.3c-81.3,0-127.1-51.8-127.1-121.1c0-69.8,46.4-121.1,118.1-121.1c64.8,0,104.7,37.9,104.7,102.6
		L3966.2,2685.6L3966.2,2685.6z M3968.2,2659.3h97.7c0-32.9-18.4-51.4-44.9-51.4C3988.1,2607.9,3973.7,2626.3,3968.2,2659.3z"/>
	<path d="M4356.9,2747c0,48.9-41.9,78.2-96.2,78.2c-31.4,0-61.8-10.4-78.8-22.9l-5.9,15.4h-15.4l-17.9-78.8l13.4-4
		c28.4,44.9,64.3,65.7,102.6,65.7c24,0,44.9-10.9,44.9-33.9c0-55.3-153-26.9-153-114.6c0-39.4,37.9-69.3,88.7-69.3
		c32.4,0,53.3,9,68.2,19.9l5.5-12.5h15.4l14.5,68.8l-14.5,4.5c-22.9-39.9-53.9-57.3-84.2-57.3c-24.4,0-37.4,12-37.4,27.4
		C4206.9,2685.2,4356.9,2658.2,4356.9,2747z"/>
</g>
</svg>
