<?xml version="1.0" encoding="utf-8"?>
<!-- Generator: Adobe Illustrator 28.1.0, SVG Export Plug-In . SVG Version: 6.00 Build 0)  -->
<svg version="1.1" id="Capa_1" with="70px" height="70px" xmlns="http://www.w3.org/2000/svg" xmlns:xlink="http://www.w3.org/1999/xlink" x="0px" y="0px"
	viewBox="0 0 737.01 737.01" style="enable-background:new 0 0 737.01 737.01;" xml:space="preserve">
<style type="text/css">
	.st0{fill:#F2E8DD;}
</style>
<g>
	<path class="st0" d="M191.68,191.55c95.01,0,172.53,74.87,176.77,168.83c0.01,0.15,0.23,0.15,0.23,0
		c4.25-93.96,81.76-168.83,176.77-168.83c0-97.73-79.23-176.96-176.96-176.96S191.55,93.81,191.55,191.55c0.02,0,0.05,0,0.07,0
		S191.66,191.55,191.68,191.55z"/>
	<path class="st0" d="M368.68,376.36c-0.01-0.14-0.2-0.14-0.21,0c-4.11,94.09-81.69,169.1-176.78,169.1c-0.02,0-0.05,0-0.07,0
		c-0.02,0-0.04,0-0.07,0c0.08,97.67,79.27,176.82,176.96,176.82s176.88-79.15,176.96-176.82
		C450.36,545.46,372.79,470.45,368.68,376.36z"/>
	<path class="st0" d="M545.46,191.55c0,95.04-74.92,172.57-168.92,176.78c-0.15,0.01-0.15,0.22,0,0.23
		c94,4.21,168.92,81.74,168.92,176.78c0,0.02,0,0.05,0,0.07s0,0.05,0,0.07c97.73,0,176.96-79.23,176.96-176.96
		S643.19,191.55,545.46,191.55z"/>
	<path class="st0" d="M191.55,545.32c0-95.15,75.09-172.75,169.25-176.79c0.14-0.01,0.14-0.19,0-0.2
		c-94.15-4.04-169.25-81.64-169.25-176.79C93.88,191.62,14.73,270.82,14.73,368.5s79.15,176.88,176.82,176.96c0-0.02,0-0.04,0-0.07
		C191.55,545.37,191.55,545.35,191.55,545.32z"/>
</g>
</svg>
